<?xml version="1.0"?>
<svg xmlns="http://www.w3.org/2000/svg" viewBox="0 0 50 50">
    <path style="text-indent:0;text-align:start;line-height:normal;text-transform:none;block-progression:tb;-inkscape-font-specification:Sans" d="M 25.0625 11.96875 A 1.0001 1.0001 0 0 0 24.96875 12 L 24.9375 12 L 16.96875 12 A 1.0001 1.0001 0 0 0 16.875 12 A 1.0001 1.0001 0 0 0 16.09375 12.5 L 13.09375 17.71875 L 10.46875 13.375 C 9.9473225 12.515102 9.0055935 12 8 12 L 1 12 A 1.0001 1.0001 0 0 0 0.90625 12 A 1.0001 1.0001 0 0 0 0.125 13.5 L 7.9375 27.21875 A 1.0001 1.0001 0 0 0 8.0625 27.5 L 14.65625 39 C 15.718507 40.853248 17.706821 42 19.84375 42 L 24.46875 42 A 1.0001 1.0001 0 0 0 25.15625 42 L 33 42 A 1.0001 1.0001 0 0 0 33.875 41.5 L 36.875 36.25 L 39.53125 40.59375 C 40.052677 41.453648 40.994407 41.96875 42 41.96875 L 49 41.96875 A 1.0001 1.0001 0 0 0 49.875 40.46875 L 41.96875 26.625 A 1.0001 1.0001 0 0 0 41.96875 26.59375 L 41.9375 26.53125 A 1.0001 1.0001 0 0 0 41.90625 26.5 A 1.0001 1.0001 0 0 0 41.84375 26.40625 L 35.3125 15 C 34.251034 13.146036 32.261929 12 30.125 12 L 25.375 12 L 25.28125 12 A 1.0001 1.0001 0 0 0 25.0625 11.96875 z M 2.71875 14 L 8 14 C 8.3064065 14 8.5874275 14.169398 8.75 14.4375 L 11.96875 19.71875 L 8.96875 24.9375 L 2.71875 14 z M 17.5625 14 L 23.40625 14 L 20.3125 19.40625 L 20.3125 19.4375 L 20.28125 19.46875 A 1.0001 1.0001 0 0 0 20.1875 19.625 L 16.25 26.5 A 1.0001 1.0001 0 0 0 16.15625 26.65625 A 1.0001 1.0001 0 0 0 16.15625 26.6875 A 1.0001 1.0001 0 0 0 16.46875 27.875 A 1.0001 1.0001 0 0 0 16.5 27.90625 L 20.1875 34.375 A 1.0001 1.0001 0 0 0 21.0625 34.875 L 27.1875 34.875 L 24.28125 40 L 19.84375 40 C 18.420679 40 17.113993 39.234752 16.40625 38 L 10.09375 27 L 13.84375 20.4375 A 1.0103227 1.0103227 0 0 0 14.125 19.96875 L 17.5625 14 z M 25.71875 14 L 30.125 14 C 31.548071 14 32.855966 14.765964 33.5625 16 L 39.875 27 L 36.03125 33.6875 A 1.0021949 1.0021949 0 0 0 35.9375 33.875 L 32.40625 40 L 26.5625 40 L 29.6875 34.5625 L 29.71875 34.46875 A 1.0001 1.0001 0 0 0 29.78125 34.375 L 33.71875 27.5 A 1.0001 1.0001 0 0 0 33.75 26.53125 A 1.0001 1.0001 0 0 0 33.71875 26.5 L 33.71875 26.46875 A 1.0001 1.0001 0 0 0 33.59375 26.28125 L 29.78125 19.625 A 1.0001 1.0001 0 0 0 28.9375 19.125 L 22.78125 19.125 L 25.71875 14 z M 21.625 21.125 L 28.34375 21.125 L 31.71875 27 L 28.34375 32.875 L 21.625 32.875 L 18.25 27 L 19.90625 24.125 L 21.625 21.125 z M 41.03125 29.03125 L 47.28125 39.96875 L 42 39.96875 C 41.693593 39.96875 41.412573 39.830602 41.25 39.5625 L 38.03125 34.25 L 41.03125 29.03125 z" overflow="visible" font-family="Sans"/>
</svg>
