<?xml version="1.0"?>
<svg xmlns="http://www.w3.org/2000/svg" viewBox="0 0 50 50">
    <path style="line-height:normal;text-indent:0;text-align:start;text-decoration-line:none;text-decoration-style:solid;text-decoration-color:#000;text-transform:none;block-progression:tb;isolation:auto;mix-blend-mode:normal" d="M 16.082031 4.0136719 C 15.532267 4.0546289 14.993633 4.1964684 14.5 4.4472656 L 14.498047 4.4472656 C 13.477646 4.9677153 12.828299 5.9505608 12.462891 7.0820312 C 12.097482 8.2135019 11.973754 9.5388951 12 11.017578 C 12.031002 12.764137 12.298694 14.741542 12.726562 16.808594 C 11.081374 17.117549 9.5734116 17.51176 8.2382812 17.982422 C 6.4531035 18.611735 4.9692134 19.377314 3.8632812 20.322266 C 2.7573492 21.267217 2.0077607 22.450735 1.9375 23.791016 C 1.864009 25.185884 2.6451537 26.420049 3.6972656 27.451172 C 4.7493775 28.482295 6.1378489 29.347418 7.6367188 29.931641 A 1.0001 1.0001 0 1 0 8.3632812 28.068359 C 7.1041512 27.577582 5.9108412 26.822314 5.0957031 26.023438 C 4.280565 25.224561 3.9080376 24.418616 3.9355469 23.896484 C 3.9707862 23.224265 4.3311351 22.551814 5.1621094 21.841797 C 5.9930836 21.13178 7.2738965 20.443203 8.9023438 19.869141 C 10.142362 19.432008 11.583357 19.060508 13.177734 18.765625 C 13.635599 20.582976 14.201464 22.435929 14.869141 24.261719 C 11.645188 30.059958 9.9354326 35.201028 10 39.017578 C 10.03975 41.364168 10.878498 43.29701 12.455078 44.320312 C 13.527712 45.016829 14.820474 45.278443 16.167969 45.003906 C 17.515464 44.72937 18.92427 43.994502 20.580078 42.814453 A 1.0001 1.0001 0 1 0 19.419922 41.185547 C 17.88773 42.277498 16.682286 42.858959 15.769531 43.044922 C 14.856776 43.230885 14.243288 43.096062 13.544922 42.642578 C 12.659502 42.067882 12.032246 40.887785 12 38.984375 C 11.951112 36.094664 13.243334 31.738 15.826172 26.714844 C 16.164449 27.523275 16.517102 28.318169 16.884766 29.089844 C 19.554595 34.693378 22.91385 39.286599 26.1875 42.279297 C 27.824325 43.775646 29.438256 44.877053 30.992188 45.488281 C 32.546118 46.099509 34.112948 46.223601 35.433594 45.550781 L 35.488281 45.521484 L 35.539062 45.488281 C 36.65972 44.731285 37.354125 43.475182 37.732422 41.974609 C 38.110719 40.474037 38.189586 38.687913 38.015625 36.677734 C 37.667703 32.657377 36.290467 27.729695 33.908203 22.580078 A 1.0005834 1.0005834 0 0 0 32.091797 23.419922 C 34.392533 28.393305 35.702858 33.147171 36.023438 36.851562 C 36.183726 38.703759 36.093988 40.290354 35.792969 41.484375 C 35.500793 42.643333 35.023687 43.378682 34.466797 43.779297 C 33.809834 44.091564 32.916692 44.09585 31.724609 43.626953 C 30.502416 43.146212 29.047785 42.18376 27.537109 40.802734 C 24.515757 38.040683 21.260624 33.624981 18.689453 28.228516 C 18.111721 27.015937 17.576356 25.730757 17.078125 24.423828 C 17.688275 23.354098 18.333551 22.269921 19.052734 21.160156 C 19.765128 20.063128 20.500491 19.013653 21.248047 18.015625 C 21.500799 18.011492 21.748236 18.000868 22.003906 18 C 23.078973 17.9961 24.182735 18.027718 25.308594 18.085938 C 31.297726 18.399963 36.676337 19.548206 40.443359 21.117188 C 42.326871 21.901678 43.80344 22.796121 44.738281 23.679688 C 45.673123 24.563253 46.036873 25.361367 45.998047 26.101562 C 45.962197 26.775464 45.653825 27.432552 44.945312 28.121094 C 44.236263 28.810159 43.125601 29.491525 41.638672 30.068359 A 1.0001 1.0001 0 1 0 42.361328 31.931641 C 44.024399 31.286475 45.361691 30.505325 46.337891 29.556641 C 47.31409 28.607956 47.9286 27.451639 47.994141 26.205078 C 48.071811 24.724275 47.310143 23.357669 46.111328 22.224609 C 44.912513 21.091548 43.246504 20.11654 41.212891 19.269531 C 37.145663 17.575513 31.590977 16.411865 25.412109 16.087891 C 24.536247 16.042601 23.679675 16.031329 22.824219 16.021484 C 24.474399 14.023356 26.1532 12.283981 27.767578 10.892578 C 30.64423 8.413245 33.349833 7.0639631 35.037109 7 L 35.039062 7 C 35.66326 6.976206 36.134013 7.1010244 36.523438 7.3535156 C 37.788207 8.175001 38.852865 10.381657 37.125 13.517578 A 1.0001 1.0001 0 1 0 38.875 14.482422 C 40.983135 10.656343 39.846512 7.126296 37.613281 5.6757812 L 37.611328 5.6757812 C 36.83529 5.172621 35.912 4.9641553 34.962891 5 L 34.960938 5 C 32.401632 5.097697 29.515113 6.744615 26.460938 9.3769531 C 24.400981 11.152392 22.284496 13.413158 20.25 16.035156 C 18.302957 16.097161 16.449678 16.250223 14.716797 16.490234 C 14.292304 14.48029 14.028472 12.586317 14 10.982422 C 13.976246 9.6441049 14.105345 8.5080451 14.367188 7.6972656 C 14.628633 6.8877125 14.980568 6.4483608 15.40625 6.2304688 C 15.656051 6.103554 15.916891 6.0310404 16.230469 6.0078125 C 17.253249 5.9316075 19.261251 7.0271007 21.361328 8.7695312 A 1.0001 1.0001 0 1 0 22.638672 7.2304688 C 20.429395 5.3974352 18.308492 3.8489275 16.083984 4.0136719 L 16.082031 4.0136719 z M 18.708984 18.111328 C 18.257909 18.749609 17.811814 19.399609 17.375 20.072266 C 16.959922 20.712768 16.584806 21.338555 16.203125 21.966797 C 15.814352 20.786619 15.474873 19.612758 15.177734 18.453125 C 16.300216 18.302163 17.479896 18.187122 18.708984 18.111328 z M 25 22 C 23.343 22 22 23.343 22 25 C 22 26.657 23.343 28 25 28 C 26.657 28 28 26.657 28 25 C 28 23.343 26.657 22 25 22 z" font-weight="400" font-family="sans-serif" white-space="normal" overflow="visible"/>
</svg>
